<svg width="25" height="25" viewBox="0 0 25 25" fill="none" xmlns="http://www.w3.org/2000/svg">
<path d="M12.5 8.70459C12.6989 8.70459 12.8897 8.78361 13.0303 8.92426C13.171 9.06491 13.25 9.25568 13.25 9.45459V9.80859C13.4633 9.86859 13.6647 9.95259 13.854 10.0606C13.9983 9.96448 14.1714 9.92131 14.3439 9.93841C14.5163 9.95552 14.6776 10.0319 14.8002 10.1544C14.9227 10.277 14.9991 10.4382 15.0162 10.6107C15.0333 10.7832 14.9901 10.9563 14.894 11.1006C15.0013 11.2893 15.0853 11.4906 15.146 11.7046H15.5C15.6989 11.7046 15.8897 11.7836 16.0303 11.9243C16.171 12.0649 16.25 12.2557 16.25 12.4546C16.25 12.6535 16.171 12.8443 16.0303 12.9849C15.8897 13.1256 15.6989 13.2046 15.5 13.2046H15.146C15.086 13.4179 15.002 13.6193 14.894 13.8086C14.9901 13.9528 15.0333 14.1259 15.0162 14.2984C14.9991 14.4709 14.9227 14.6322 14.8002 14.7548C14.6776 14.8773 14.5163 14.9537 14.3439 14.9708C14.1714 14.9879 13.9983 14.9447 13.854 14.8486C13.6636 14.9568 13.4608 15.0414 13.25 15.1006V15.4546C13.25 15.6535 13.171 15.8443 13.0303 15.9849C12.8897 16.1256 12.6989 16.2046 12.5 16.2046C12.3011 16.2046 12.1103 16.1256 11.9697 15.9849C11.829 15.8443 11.75 15.6535 11.75 15.4546V15.1006C11.5392 15.0414 11.3364 14.9568 11.146 14.8486C11.0017 14.9447 10.8286 14.9879 10.6561 14.9708C10.4837 14.9537 10.3224 14.8773 10.1998 14.7548C10.0773 14.6322 10.0009 14.4709 9.98382 14.2984C9.96672 14.1259 10.0099 13.9528 10.106 13.8086C9.99782 13.6182 9.9132 13.4154 9.854 13.2046H9.5C9.30109 13.2046 9.11032 13.1256 8.96967 12.9849C8.82902 12.8443 8.75 12.6535 8.75 12.4546C8.75 12.2557 8.82902 12.0649 8.96967 11.9243C9.11032 11.7836 9.30109 11.7046 9.5 11.7046H9.854C9.914 11.4913 9.998 11.2899 10.106 11.1006C10.0099 10.9563 9.96672 10.7832 9.98382 10.6107C10.0009 10.4382 10.0773 10.277 10.1998 10.1544C10.3224 10.0319 10.4837 9.95552 10.6561 9.93841C10.8286 9.92131 11.0017 9.96448 11.146 10.0606C11.3347 9.95326 11.536 9.86926 11.75 9.80859V9.45459C11.75 9.25568 11.829 9.06491 11.9697 8.92426C12.1103 8.78361 12.3011 8.70459 12.5 8.70459ZM11.616 13.3386C11.7318 13.4552 11.8695 13.5477 12.0212 13.6108C12.173 13.674 12.3357 13.7065 12.5 13.7065C12.6643 13.7065 12.827 13.674 12.9788 13.6108C13.1305 13.5477 13.2682 13.4552 13.384 13.3386C13.5588 13.1638 13.6778 12.941 13.726 12.6986C13.7742 12.4561 13.7494 12.2048 13.6548 11.9764C13.5602 11.748 13.4 11.5528 13.1944 11.4155C12.9889 11.2781 12.7472 11.2048 12.5 11.2048C12.2528 11.2048 12.0111 11.2781 11.8056 11.4155C11.6 11.5528 11.4398 11.748 11.3452 11.9764C11.2506 12.2048 11.2258 12.4561 11.274 12.6986C11.3222 12.941 11.4412 13.1638 11.616 13.3386Z" fill="white" fill-opacity="0.8"/>
<path d="M6.75 12.4546C6.75 10.9296 7.3558 9.46706 8.43414 8.38873C9.51247 7.31039 10.975 6.70459 12.5 6.70459C14.025 6.70459 15.4875 7.31039 16.5659 8.38873C17.6442 9.46706 18.25 10.9296 18.25 12.4546C18.25 13.9796 17.6442 15.4421 16.5659 16.5205C15.4875 17.5988 14.025 18.2046 12.5 18.2046C10.975 18.2046 9.51247 17.5988 8.43414 16.5205C7.3558 15.4421 6.75 13.9796 6.75 12.4546ZM12.5 8.20459C11.9419 8.20459 11.3892 8.31452 10.8736 8.5281C10.358 8.74168 9.88944 9.05474 9.4948 9.44939C9.10015 9.84403 8.78709 10.3126 8.57351 10.8282C8.35993 11.3438 8.25 11.8965 8.25 12.4546C8.25 13.0127 8.35993 13.5654 8.57351 14.081C8.78709 14.5966 9.10015 15.0651 9.4948 15.4598C9.88944 15.8544 10.358 16.1675 10.8736 16.3811C11.3892 16.5947 11.9419 16.7046 12.5 16.7046C13.6272 16.7046 14.7082 16.2568 15.5052 15.4598C16.3022 14.6628 16.75 13.5818 16.75 12.4546C16.75 11.3274 16.3022 10.2464 15.5052 9.44939C14.7082 8.65236 13.6272 8.20459 12.5 8.20459Z" fill="white" fill-opacity="0.8"/>
<path d="M15.133 2.70459H9.867C8.775 2.70459 7.909 2.70459 7.212 2.76159C6.498 2.81959 5.895 2.94159 5.344 3.22159C4.44999 3.67726 3.72324 4.40436 3.268 5.29859C2.993 5.83859 2.87 6.42859 2.811 7.12159C2.56654 7.248 2.36158 7.43923 2.21854 7.67434C2.07549 7.90945 1.99989 8.17938 2 8.45459V9.95459C1.99983 10.2181 2.06906 10.4769 2.20072 10.7051C2.33238 10.9333 2.52183 11.1229 2.75 11.2546V13.6546C2.52183 13.7863 2.33238 13.9758 2.20072 14.204C2.06906 14.4323 1.99983 14.6911 2 14.9546V16.4546C2 17.0346 2.33 17.5376 2.81 17.7876C2.87 18.4816 2.993 19.0716 3.268 19.6116C3.72358 20.5051 4.45029 21.2314 5.344 21.6866C5.894 21.9676 6.498 22.0896 7.212 22.1476C7.909 22.2046 8.775 22.2046 9.867 22.2046H15.133C16.225 22.2046 17.091 22.2046 17.788 22.1476C18.502 22.0896 19.105 21.9676 19.657 21.6876C20.5505 21.232 21.2768 20.5053 21.732 19.6116C22.013 19.0596 22.135 18.4566 22.193 17.7426C22.25 17.0456 22.25 16.1796 22.25 15.0876V9.82159C22.25 8.72959 22.25 7.86359 22.193 7.16659C22.135 6.45259 22.013 5.84959 21.733 5.29859C21.2776 4.40473 20.5509 3.678 19.657 3.22259C19.105 2.94159 18.502 2.81959 17.788 2.76159C17.091 2.70459 16.225 2.70459 15.133 2.70459ZM4.31 17.7166C4.725 17.4506 5 16.9846 5 16.4546V14.9546C5.00017 14.6911 4.93094 14.4323 4.79928 14.204C4.66762 13.9758 4.47817 13.7863 4.25 13.6546V11.2546C4.47817 11.1229 4.66762 10.9333 4.79928 10.7051C4.93094 10.4769 5.00017 10.2181 5 9.95459V8.45459C5 7.92459 4.725 7.45859 4.31 7.19259C4.363 6.62759 4.457 6.26759 4.604 5.97959C4.91556 5.36822 5.41263 4.87115 6.024 4.55959C6.329 4.40359 6.714 4.30759 7.334 4.25659C7.964 4.20559 8.768 4.20459 9.9 4.20459H15.1C16.233 4.20459 17.037 4.20459 17.666 4.25659C18.286 4.30659 18.671 4.40359 18.976 4.55859C19.5874 4.87015 20.0844 5.36722 20.396 5.97859C20.551 6.28359 20.647 6.66859 20.698 7.28859C20.749 7.91859 20.75 8.72259 20.75 9.85459V15.0546C20.75 16.1876 20.75 16.9916 20.698 17.6206C20.648 18.2406 20.551 18.6256 20.396 18.9306C20.0844 19.542 19.5874 20.039 18.976 20.3506C18.671 20.5056 18.286 20.6016 17.666 20.6526C17.036 20.7036 16.232 20.7046 15.1 20.7046H9.9C8.768 20.7046 7.963 20.7046 7.334 20.6526C6.714 20.6026 6.329 20.5056 6.024 20.3506C5.41263 20.039 4.91556 19.542 4.604 18.9306C4.457 18.6416 4.363 18.2816 4.31 17.7166Z" fill="white" fill-opacity="0.8"/>
</svg>
