<svg width="25" height="25" viewBox="0 0 25 25" fill="none" xmlns="http://www.w3.org/2000/svg">
<path d="M20.5 10.3638C20.5 15.3568 14.961 20.5568 13.101 22.1628C12.9277 22.2931 12.7168 22.3635 12.5 22.3635C12.2832 22.3635 12.0723 22.2931 11.899 22.1628C10.039 20.5568 4.5 15.3568 4.5 10.3638C4.5 8.24204 5.34285 6.20721 6.84315 4.70692C8.34344 3.20662 10.3783 2.36377 12.5 2.36377C14.6217 2.36377 16.6566 3.20662 18.1569 4.70692C19.6571 6.20721 20.5 8.24204 20.5 10.3638Z" stroke="white" stroke-opacity="0.8" stroke-linecap="round" stroke-linejoin="round"/>
<path d="M11.5328 13.4077V10.022M13.4675 13.4077V10.022M15.4022 13.4077V10.022M8.14708 15.3424H16.8532M9.5981 13.4077V10.022M12.0745 5.76471C12.2072 5.70024 12.3529 5.66698 12.5005 5.66749C12.648 5.66799 12.7935 5.70224 12.9258 5.76761L16.7303 7.6283C16.9606 7.741 16.8803 8.08731 16.6239 8.08731H8.37634C8.11999 8.08731 8.04019 7.741 8.26993 7.6283L12.0745 5.76471Z" stroke="white" stroke-opacity="0.8" stroke-linecap="round" stroke-linejoin="round"/>
</svg>
