<svg width="17" height="17" viewBox="0 0 17 17" fill="none" xmlns="http://www.w3.org/2000/svg">
<path d="M8 2.24993H2.75C2.35218 2.24993 1.97064 2.40796 1.68934 2.68927C1.40804 2.97057 1.25 3.3521 1.25 3.74993V14.2499C1.25 14.6478 1.40804 15.0293 1.68934 15.3106C1.97064 15.5919 2.35218 15.7499 2.75 15.7499H13.25C13.6478 15.7499 14.0294 15.5919 14.3107 15.3106C14.592 15.0293 14.75 14.6478 14.75 14.2499V8.99993M12.7812 1.96868C13.0796 1.67031 13.4843 1.50269 13.9062 1.50269C14.3282 1.50269 14.7329 1.67031 15.0312 1.96868C15.3296 2.26704 15.4972 2.67172 15.4972 3.09368C15.4972 3.51563 15.3296 3.92031 15.0312 4.21868L8.2715 10.9792C8.09341 11.1571 7.8734 11.2874 7.63175 11.3579L5.477 11.9879C5.41246 12.0067 5.34405 12.0079 5.27893 11.9912C5.21381 11.9745 5.15437 11.9406 5.10683 11.8931C5.0593 11.8456 5.02542 11.7861 5.00873 11.721C4.99205 11.6559 4.99318 11.5875 5.012 11.5229L5.642 9.36818C5.71289 9.12671 5.8434 8.90697 6.0215 8.72918L12.7812 1.96868Z" stroke="white" stroke-width="1.125" stroke-linecap="round" stroke-linejoin="round"/>
</svg>
