<svg width="18" height="18" viewBox="0 0 18 18" fill="none" xmlns="http://www.w3.org/2000/svg">
<g clip-path="url(#clip0_27_11487)">
<path d="M1.54639 9.26103C1.48389 9.09264 1.48389 8.90741 1.54639 8.73903C2.15517 7.26292 3.18853 6.00081 4.51547 5.1127C5.84241 4.22459 7.40317 3.75049 8.99989 3.75049C10.5966 3.75049 12.1574 4.22459 13.4843 5.1127C14.8113 6.00081 15.8446 7.26292 16.4534 8.73903C16.5159 8.90741 16.5159 9.09264 16.4534 9.26103C15.8446 10.7371 14.8113 11.9992 13.4843 12.8874C12.1574 13.7755 10.5966 14.2496 8.99989 14.2496C7.40317 14.2496 5.84241 13.7755 4.51547 12.8874C3.18853 11.9992 2.15517 10.7371 1.54639 9.26103Z" stroke="white" stroke-width="1.5" stroke-linecap="round" stroke-linejoin="round"/>
<path d="M8.99989 11.25C10.2425 11.25 11.2499 10.2427 11.2499 9.00003C11.2499 7.75739 10.2425 6.75003 8.99989 6.75003C7.75725 6.75003 6.74989 7.75739 6.74989 9.00003C6.74989 10.2427 7.75725 11.25 8.99989 11.25Z" stroke="white" stroke-width="1.5" stroke-linecap="round" stroke-linejoin="round"/>
</g>
<defs>
<clipPath id="clip0_27_11487">
<rect width="18" height="18" fill="white"/>
</clipPath>
</defs>
</svg>
