<svg width="21" height="19" viewBox="0 0 21 19" fill="none" xmlns="http://www.w3.org/2000/svg">
<path d="M3.2793 0.314087C4.08597 -0.0144087 4.98794 -0.00462602 5.74902 0.489868L5.90918 0.604126L5.91992 0.611938L6.06836 0.748657C6.11451 0.792875 6.15957 0.8378 6.2041 0.883423L6.2793 0.954712L6.28418 0.959595L6.41016 1.1012C6.68915 1.45107 6.87268 1.92605 6.89746 2.35803L6.89844 2.36584L6.89746 2.37366C6.89731 2.3804 6.89664 2.38741 6.89648 2.39417C7.40753 2.18237 7.93479 2.03379 8.46777 1.92053L9.07324 1.8053C9.1018 1.80024 9.13074 1.79587 9.16016 1.79065L9.16113 1.78967C10.3033 1.59531 11.6069 1.66882 12.7197 1.95764H12.7188C12.8483 1.99044 12.9105 1.99892 12.9814 1.97913C12.9942 1.968 12.9998 1.96404 13.0039 1.95959C13.0107 1.95221 13.0185 1.9421 13.0498 1.90002L13.0557 1.89221L13.1885 2.00256L13.0566 1.89221C13.7556 1.05113 14.7191 0.567515 15.7959 0.457642H15.7979C16.8531 0.363226 17.8755 0.660198 18.7148 1.29358L18.8809 1.42542L18.8848 1.42834H18.8838C19.6247 2.07606 20.1722 2.97047 20.3115 3.96741L20.333 4.16858L20.334 4.17249C20.3944 5.15665 20.2122 6.16568 19.5928 6.99377L19.5811 7.00745L19.4902 7.10803C19.4607 7.14073 19.4317 7.17396 19.4014 7.20764L19.3955 7.2135L19.2529 7.07385L19.3945 7.2135C19.3754 7.2329 19.3563 7.25242 19.3369 7.27209C19.326 7.29955 19.3292 7.29891 19.3291 7.29065C19.3291 7.28653 19.3288 7.28724 19.332 7.29944C19.3356 7.31308 19.3409 7.33 19.3506 7.35999L19.4219 7.53674L19.4248 7.54163C19.4487 7.60309 19.4724 7.66468 19.4961 7.7262H19.4951C19.5075 7.75741 19.5205 7.78876 19.5332 7.82092L19.7051 8.276C19.8768 8.75433 20.0428 9.29595 20.1533 9.84534C20.2851 10.5003 20.3385 11.1824 20.2168 11.7897C20.3363 11.8395 20.4374 11.9129 20.5215 12.0055L20.6201 12.1334L20.6318 12.152L20.6387 12.1715C20.6956 12.3216 20.6951 12.4495 20.6953 12.567L20.6963 12.7164V12.7174C20.6962 12.7717 20.6954 12.8262 20.6953 12.8805C20.6955 12.9374 20.6961 12.9944 20.6963 13.0514C20.6968 13.2073 20.6964 13.3636 20.6963 13.5192C20.6962 13.6486 20.6971 13.7782 20.6973 13.9078C20.6977 14.2144 20.6975 14.5213 20.6973 14.8278C20.697 15.1434 20.6974 15.4592 20.6982 15.775C20.6989 16.0465 20.6993 16.3181 20.6992 16.5895V17.5338C20.6991 17.5891 20.6999 17.6446 20.7002 17.6998L20.6992 17.9313V18.0719L20.6982 18.0846C20.6676 18.3259 20.5478 18.4942 20.3799 18.6315L20.3721 18.6373C20.0761 18.8547 19.7355 18.8133 19.4971 18.8151C19.4536 18.8162 19.41 18.8168 19.3652 18.818L19.3613 18.819C19.2101 18.8201 19.1049 18.8213 19.0215 18.8063C18.9221 18.7883 18.8529 18.7466 18.7793 18.7047L18.7471 18.6871L18.7236 18.6588C18.6703 18.5939 18.6271 18.5274 18.6006 18.4469C18.5748 18.3684 18.5703 18.2907 18.5703 18.2135V18.1686L18.5889 18.1285C18.6244 18.0525 18.6578 17.9769 18.7031 17.9225C18.7593 17.8551 18.8296 17.8236 18.876 17.8004L18.9141 17.7819L18.9561 17.7799C19.1898 17.7697 19.4239 17.759 19.6621 17.7487C19.674 16.1028 19.686 14.4553 19.6982 12.7633C19.1474 12.764 19.079 12.7644 18.3945 12.7653C16.8051 12.7671 15.2153 12.7682 13.626 12.7692H12.7363C11.9405 12.7697 11.1445 12.771 10.3486 12.7721C9.53205 12.7732 8.71502 12.7738 7.89844 12.774C7.39452 12.7742 6.89061 12.7751 6.38672 12.776C6.04119 12.7766 5.69511 12.7762 5.34961 12.776C5.15039 12.7759 4.95096 12.7764 4.75195 12.777H4.2041C4.13838 12.7769 4.07253 12.7776 4.00684 12.778L3.73633 12.777C3.71166 12.777 3.68697 12.777 3.66211 12.777C3.63701 12.777 3.6116 12.7779 3.58594 12.778H3.57422L3.56348 12.776C3.48263 12.7669 3.40949 12.752 3.33691 12.7223C3.26488 12.6928 3.20329 12.6526 3.14062 12.6051L3.10352 12.5768L3.08203 12.5358C2.99338 12.3584 3.01242 12.2056 3.02344 12.0778L3.02734 12.024L3.05957 11.9791C3.08685 11.941 3.11288 11.9044 3.14648 11.8707C3.1788 11.8384 3.21648 11.8104 3.25879 11.7789L3.29883 11.7496L3.34766 11.7418C3.40813 11.7326 3.44922 11.7263 3.49414 11.7233C3.53737 11.7204 3.58377 11.7201 3.65625 11.7203C3.68264 11.7202 3.71496 11.7205 3.74219 11.7203C3.83751 11.7201 3.93262 11.7205 4.02637 11.7213C4.09353 11.7214 4.16134 11.7214 4.22852 11.7213C4.41258 11.7213 4.59679 11.7222 4.78027 11.7233L5.35449 11.7252L6.44434 11.7281C6.8575 11.7299 7.27114 11.7313 7.68457 11.7321C8.48138 11.7336 9.27844 11.7357 10.0752 11.7389C10.0757 11.7365 10.0766 11.7338 10.0771 11.7311C10.0838 11.7004 10.0908 11.6699 10.0977 11.6383V11.6354C10.132 11.4895 10.1783 11.3492 10.2217 11.2174C10.3277 10.8824 10.3937 10.589 10.3994 10.2506V10.2487C10.4001 10.2242 10.4007 10.1996 10.4014 10.1744C10.4011 10.0564 10.3844 9.97741 10.3379 9.88928C10.1412 9.84617 9.93234 9.8906 9.67188 9.94983L9.66895 9.95081C8.9774 10.0971 8.27789 10.1659 7.5957 9.73108L7.58789 9.7262L7.58008 9.71936C7.04942 9.30292 6.82538 8.68 6.73828 8.07581L6.7373 8.06799C6.66872 7.39225 6.75033 6.60715 7.18359 6.00647L7.19043 5.99573H7.19141C7.37215 5.77653 7.58015 5.58152 7.77246 5.39807C7.91073 5.26382 8.00188 5.14009 8.06348 5.00842C8.1244 4.87804 8.15996 4.72948 8.17676 4.53967C8.1586 4.09497 7.99336 3.63276 7.78613 3.20764C7.4858 3.27397 7.33572 3.31009 7.20117 3.36975C7.05272 3.43562 6.91919 3.53055 6.625 3.74475C6.57554 3.84575 6.53612 3.95325 6.49023 4.07776L6.4873 4.08557C6.39528 4.30509 6.26563 4.5075 6.1582 4.68909L6.15918 4.69006C6.10816 4.7776 6.0568 4.86517 6.00586 4.95276C5.98006 4.99694 5.95431 5.042 5.92773 5.08752L5.92676 5.08655C5.8252 5.26101 5.72588 5.43713 5.625 5.61292C5.52881 5.7803 5.43171 5.94713 5.33496 6.11389L5.19727 6.35217C5.13372 6.4621 5.06892 6.57119 5.00488 6.6803C4.98615 6.7129 4.96754 6.74632 4.94824 6.77991L4.94727 6.78186C4.92102 6.82618 4.92109 6.82686 4.89453 6.8717L4.89355 6.87073C4.87866 6.89626 4.86495 6.92256 4.84961 6.94885L4.8418 6.96155L4.83301 6.97327C4.77092 7.05104 4.70063 7.10674 4.61719 7.14417C4.53831 7.17954 4.45677 7.19409 4.38281 7.20374L4.3584 7.20667L4.33301 7.20374C4.24072 7.19263 4.15675 7.17155 4.07617 7.13245C3.99585 7.09341 3.92767 7.0405 3.86328 6.97913L3.84961 6.96545L3.83789 6.94983C3.73707 6.80577 3.65498 6.65482 3.57812 6.51233C3.54656 6.4554 3.54597 6.45536 3.51367 6.39709V6.39612C3.50486 6.3802 3.49608 6.3642 3.4873 6.34827C3.03536 6.8399 2.69205 7.48393 2.43848 8.18225C2.15223 8.97059 1.98464 9.81561 1.90137 10.5592V10.5602C1.89625 10.6037 1.89101 10.6472 1.88574 10.692C1.85309 11.0326 1.85706 11.3759 1.86133 11.7301C1.89908 11.729 1.93686 11.7282 1.97461 11.7272L2.06641 11.7223H2.07227C2.12622 11.7211 2.1748 11.7201 2.21484 11.7213C2.25577 11.7226 2.30136 11.7267 2.34766 11.7408C2.39502 11.7553 2.43508 11.7789 2.46973 11.8043L2.55957 11.8805L2.58496 11.9039L2.60156 11.9342C2.65113 12.0268 2.67845 12.1154 2.67871 12.2135C2.6789 12.3023 2.65625 12.3867 2.63574 12.4606L2.625 12.4977L2.60156 12.5289C2.56419 12.5777 2.52644 12.6191 2.47949 12.6559C2.43392 12.6916 2.38644 12.7175 2.33789 12.7418L2.29492 12.7633H1.32031C1.33222 14.4065 1.34323 16.0515 1.35547 17.7408C1.79516 17.7412 2.23669 17.7415 2.68945 17.7418C4.30567 17.7431 5.92189 17.7452 7.53809 17.7477C7.78899 17.7481 8.04011 17.7483 8.29102 17.7487H8.44238C9.25192 17.7499 10.0615 17.7511 10.8711 17.7516C11.7015 17.7521 12.5319 17.7529 13.3623 17.7545L14.8994 17.7555C15.2508 17.7555 15.6028 17.7564 15.9541 17.7574C16.1567 17.758 16.3592 17.7578 16.5615 17.7574C16.7474 17.7571 16.9333 17.7575 17.1191 17.7584C17.1859 17.7586 17.2526 17.7587 17.3193 17.7584C17.4118 17.758 17.5043 17.7586 17.5957 17.7594H17.7627L17.7783 17.7623C17.8315 17.7706 17.8909 17.7783 17.9453 17.8004C17.9737 17.812 17.9997 17.8276 18.0234 17.8434L18.0879 17.8903L18.1123 17.9078L18.1309 17.9332C18.1921 18.0181 18.2271 18.102 18.2383 18.1959C18.2482 18.2799 18.2371 18.3643 18.2285 18.4332L18.2236 18.4713L18.2051 18.5045C18.1707 18.5666 18.1313 18.6344 18.0674 18.6881C18.003 18.7421 17.9289 18.7694 17.8594 18.7926L17.832 18.8014L17.8047 18.8024C17.7095 18.8063 17.6139 18.8072 17.5205 18.8073L17.5215 18.8082H17.1484L16.9414 18.8092C16.7511 18.8095 16.5603 18.8092 16.3701 18.8092C16.1653 18.8093 15.9599 18.8099 15.7549 18.8102C15.3066 18.8107 14.8584 18.811 14.4102 18.8112C14.1304 18.8113 13.8501 18.811 13.5703 18.8112C12.7958 18.8116 12.0207 18.812 11.2461 18.8121H10.4922C9.68241 18.8123 8.87232 18.8132 8.0625 18.8141C7.23152 18.815 6.40031 18.815 5.56934 18.8151C5.10264 18.8151 4.63556 18.8153 4.16895 18.816C3.77135 18.8166 3.37322 18.8173 2.97559 18.817H1.81055L1.61035 18.818H1.60938L1.33398 18.817C1.28311 18.817 1.23405 18.817 1.18164 18.817L1.1709 18.818L1.16113 18.816C0.927398 18.7919 0.681566 18.7135 0.491211 18.5172L0.477539 18.5016C0.363626 18.3561 0.322237 18.1962 0.307617 18.0485C0.294018 17.9105 0.303281 17.7584 0.304688 17.6461L0.303711 17.4742C0.302975 17.3171 0.303646 17.1597 0.304688 17.0035C0.305563 16.8412 0.30484 16.6787 0.304688 16.5153C0.304619 16.2404 0.306179 15.9647 0.307617 15.6901C0.309262 15.3738 0.309079 15.0574 0.308594 14.7408C0.308149 14.4352 0.308696 14.1293 0.30957 13.8239C0.30993 13.6945 0.309734 13.5646 0.30957 13.4352C0.309424 13.2818 0.310289 13.1284 0.311523 12.9752V12.8092C0.311268 12.7311 0.312624 12.6532 0.313477 12.5768V12.4323L0.316406 12.4166C0.361409 12.1447 0.505275 11.9849 0.686523 11.8444L0.698242 11.8356L0.711914 11.8278C0.739243 11.8126 0.768326 11.7962 0.798828 11.7819C0.63209 10.9024 0.76859 9.90308 1.04785 8.95667C1.34226 7.95904 1.80082 7.00017 2.25781 6.26819L2.25879 6.26526H2.25977C2.41121 6.03048 2.5738 5.80471 2.73438 5.58362C2.79265 5.50328 2.84931 5.42163 2.90723 5.34045L2.72363 5.01038L2.64941 4.87659L2.30078 4.27112C1.8723 3.55797 1.65081 2.85006 1.85449 1.98108L1.85742 1.96838L2.04883 2.02698L1.8584 1.96838C2.05802 1.31262 2.47487 0.728909 3.09961 0.394165L3.1084 0.389282L3.2793 0.314087ZM18.7852 18.3658C18.7862 18.3698 18.7879 18.3736 18.7891 18.3776C18.7823 18.3555 18.7772 18.3326 18.7744 18.3073L18.7852 18.3658ZM7.00195 13.2135C7.08368 13.2136 7.16535 13.2125 7.24707 13.2115C7.69033 13.2094 8.07709 13.2532 8.4043 13.5758C8.61742 13.8377 8.70685 14.1341 8.67773 14.4723C8.62921 14.6837 8.56891 14.8779 8.44336 15.0573C8.46506 15.0653 8.48741 15.0734 8.50977 15.0817C8.74343 15.2208 8.87017 15.467 8.9502 15.7194C9.03074 16.1239 8.9706 16.45 8.74805 16.7965C8.53509 17.0722 8.27702 17.216 7.9375 17.278C7.72097 17.2976 7.50339 17.2981 7.28613 17.2975C7.18444 17.2974 7.08215 17.2997 6.98047 17.3014C6.91549 17.3016 6.85014 17.3014 6.78516 17.3014C6.75519 17.302 6.72521 17.3027 6.69434 17.3033C6.5502 17.3015 6.46795 17.2864 6.35059 17.2008C6.22936 17.0407 6.23484 16.9269 6.23828 16.7311C6.23813 16.696 6.23746 16.6608 6.2373 16.6246C6.23704 16.5088 6.23808 16.3928 6.23926 16.277C6.23942 16.1964 6.24022 16.1154 6.24023 16.0348C6.24048 15.8662 6.2408 15.6976 6.24219 15.5289C6.24395 15.3125 6.24497 15.096 6.24512 14.8795C6.24529 14.7132 6.24535 14.5468 6.24609 14.3805C6.24644 14.3008 6.24689 14.221 6.24707 14.1412C6.24742 14.0298 6.24799 13.9177 6.24902 13.8063C6.24906 13.7571 6.24996 13.7569 6.25 13.7067C6.25361 13.4241 6.25366 13.4239 6.33984 13.3033C6.52529 13.1692 6.7828 13.2128 7.00195 13.2135ZM11.1328 13.2643C11.3375 13.4236 11.4036 13.6183 11.4893 13.8541C11.5039 13.8931 11.5181 13.9322 11.5332 13.9723C11.581 14.0997 11.6288 14.2274 11.6758 14.3551C11.7086 14.4431 11.7415 14.5318 11.7744 14.6198C11.8242 14.753 11.8734 14.8868 11.9229 15.0201C12.0257 15.2973 12.1306 15.5736 12.2373 15.8492C12.2629 15.9157 12.2888 15.982 12.3145 16.0485C12.3502 16.1412 12.3857 16.2342 12.4219 16.3268C12.4547 16.4109 12.4873 16.4953 12.5195 16.5797C12.5377 16.6265 12.5565 16.6731 12.5752 16.7213C12.6142 16.8515 12.6271 16.9488 12.6133 17.0836C12.5177 17.2129 12.4602 17.2693 12.3018 17.3024C12.1849 17.278 12.1841 17.2785 11.9893 17.0836C11.9121 16.8779 11.8354 16.6716 11.7559 16.4596H10.1582C10.0605 16.6995 10.0607 16.6999 9.96387 16.9401C9.9515 16.9699 9.93852 17.0001 9.92578 17.0309C9.91338 17.0614 9.90145 17.0922 9.88867 17.1237C9.84684 17.2004 9.84634 17.2001 9.72949 17.278C9.58586 17.2967 9.51291 17.2867 9.38379 17.2194C9.2893 17.1081 9.28389 17.0479 9.28809 16.9049C9.31448 16.7117 9.39243 16.5345 9.46387 16.3541C9.48078 16.3102 9.49722 16.2656 9.51465 16.2203C9.56949 16.0783 9.62504 15.9363 9.68066 15.7946C9.71842 15.6975 9.75633 15.6006 9.79395 15.5035C9.86817 15.3122 9.94292 15.1205 10.0176 14.9293C10.1036 14.7084 10.1876 14.4864 10.2705 14.2643C10.3015 14.1818 10.3332 14.0987 10.3643 14.0162C10.3915 13.9434 10.4185 13.8705 10.4453 13.7975C10.5805 13.4415 10.706 13.163 11.1328 13.2643ZM15.4971 13.2643C15.6351 13.2183 15.7075 13.2292 15.8477 13.2643C15.946 13.3389 15.9629 13.3785 16.0029 13.4987C16.0075 13.6106 16.0102 13.7216 16.0107 13.8336C16.0112 13.8851 16.0112 13.8856 16.0117 13.9381C16.0127 14.0516 16.0131 14.1655 16.0137 14.2789C16.0139 14.3176 16.0144 14.3563 16.0146 14.3961C16.0157 14.6012 16.016 14.8063 16.0166 15.0114C16.0173 15.2233 16.0195 15.4352 16.0215 15.6471C16.0228 15.81 16.0232 15.9734 16.0234 16.1364C16.0237 16.2144 16.0245 16.2927 16.0254 16.3707C16.0266 16.48 16.0267 16.5896 16.0264 16.6989C16.027 16.731 16.0277 16.7634 16.0283 16.7965C16.0265 16.962 16.0172 17.026 15.9131 17.1617C15.8086 17.2389 15.8083 17.2394 15.6719 17.2614C15.4915 17.2324 15.4009 17.1594 15.2881 17.0153C15.2286 16.9309 15.171 16.8456 15.1143 16.7594C15.0694 16.6926 15.0244 16.6259 14.9795 16.5592C14.9559 16.524 14.9325 16.488 14.9082 16.4518C14.7818 16.2647 14.6518 16.0802 14.5225 15.8951C14.2985 15.574 14.0765 15.2512 13.8564 14.9274C13.8369 14.8987 13.817 14.87 13.7969 14.8405C13.7798 14.8154 13.7627 14.7901 13.7451 14.7643C13.7073 14.7072 13.707 14.7073 13.665 14.6676C13.665 14.6973 13.6651 14.7269 13.665 14.7574C13.6643 15.0389 13.6628 15.3207 13.6602 15.6022C13.6588 15.7469 13.6574 15.892 13.6572 16.0367C13.6571 16.1764 13.6561 16.3161 13.6543 16.4557C13.6538 16.5087 13.6541 16.5618 13.6543 16.6149C13.6555 17.0848 13.655 17.0852 13.5342 17.2135C13.406 17.294 13.3459 17.3089 13.1973 17.278C13.093 17.2004 13.0153 17.138 12.9844 17.0074C12.9772 16.9136 12.9772 16.8213 12.9785 16.7272C12.9782 16.6917 12.9778 16.6563 12.9775 16.6198C12.9769 16.5026 12.9777 16.3853 12.9785 16.2682C12.9785 16.1868 12.9777 16.1054 12.9775 16.024C12.9774 15.8535 12.9784 15.6829 12.9795 15.5123C12.9808 15.2936 12.9802 15.0748 12.9795 14.8561C12.9791 14.6879 12.9799 14.5194 12.9805 14.3512C12.9807 14.2705 12.9807 14.1897 12.9805 14.109C12.9803 13.9964 12.9804 13.8837 12.9814 13.7711C12.9812 13.7378 12.9817 13.7039 12.9814 13.6696C12.9838 13.5224 12.9856 13.4445 13.0723 13.3219C13.176 13.2528 13.2652 13.244 13.3887 13.2399C13.5794 13.2971 13.6917 13.4885 13.7939 13.649C13.9501 13.8886 14.1126 14.1236 14.2764 14.358C14.4779 14.647 14.679 14.9364 14.8779 15.2272C14.8977 15.256 14.9172 15.2854 14.9375 15.3151C15.036 15.4592 15.1337 15.6043 15.2305 15.7496C15.2511 15.7807 15.2727 15.8114 15.2939 15.8434C15.3095 15.8667 15.3248 15.8906 15.3408 15.9147C15.341 15.8839 15.3416 15.8527 15.3418 15.8209C15.3441 15.5297 15.3462 15.2381 15.3496 14.9469C15.3514 14.7972 15.3534 14.6474 15.3545 14.4977C15.3555 14.3532 15.3564 14.2086 15.3584 14.0641C15.359 14.0091 15.3601 13.954 15.3604 13.899C15.3607 13.8218 15.3621 13.7439 15.3633 13.6666C15.3637 13.6228 15.3638 13.579 15.3643 13.5338C15.3815 13.4077 15.4079 13.3538 15.4971 13.2643ZM5.06641 13.316C5.20592 13.2058 5.31832 13.2233 5.48242 13.2643C5.59025 13.3424 5.61177 13.4103 5.6377 13.5377C5.64157 13.6487 5.64361 13.7588 5.64355 13.8698C5.64369 13.9033 5.64342 13.9377 5.64355 13.9723C5.64392 14.0829 5.64449 14.1937 5.64453 14.3043C5.64466 14.3814 5.64439 14.4587 5.64453 14.5358C5.64476 14.6972 5.64553 14.8587 5.64551 15.0201C5.6455 15.2271 5.64581 15.4343 5.64648 15.6412C5.64692 15.8003 5.6465 15.9597 5.64648 16.1188C5.64653 16.1949 5.64716 16.2711 5.64746 16.3473C5.64784 16.454 5.6477 16.5609 5.64746 16.6676C5.64768 16.6989 5.64821 16.7301 5.64844 16.7623C5.64753 16.9242 5.63986 17.0571 5.55957 17.1998C5.41469 17.2964 5.3414 17.296 5.16992 17.278C5.08501 17.2219 5.08477 17.2216 5.01465 17.1227C4.99167 17.0031 4.99378 16.8848 4.99512 16.7633C4.99491 16.727 4.99436 16.6904 4.99414 16.653C4.99365 16.5329 4.99442 16.4127 4.99512 16.2926C4.99511 16.2093 4.99522 16.1259 4.99512 16.0426C4.99506 15.8679 4.99521 15.6928 4.99609 15.5182C4.9972 15.2942 4.99757 15.0703 4.99707 14.8463V14.0817C4.99696 13.9664 4.99817 13.8512 4.99902 13.736C4.99885 13.7016 4.99823 13.6668 4.99805 13.6315C5.00091 13.3986 5.00116 13.3983 5.06641 13.316ZM7.40625 15.444C7.23426 15.4448 7.06197 15.4461 6.88477 15.4469V16.6549C7.03908 16.6581 7.19355 16.6614 7.35254 16.6647C7.40055 16.6661 7.44858 16.6671 7.49805 16.6686C7.76796 16.6713 7.94277 16.6462 8.1709 16.4987C8.30988 16.3383 8.36158 16.2041 8.36523 15.9918C8.31711 15.7498 8.21372 15.6257 8.01465 15.486C7.90691 15.4321 7.81964 15.4424 7.69922 15.443C7.63549 15.4431 7.63537 15.4428 7.57031 15.443C7.51617 15.4433 7.46203 15.4436 7.40625 15.444ZM10.7041 14.9098C10.6778 14.9769 10.6515 15.0439 10.625 15.111C10.5869 15.2074 10.5495 15.3044 10.5117 15.401C10.4999 15.4309 10.4878 15.461 10.4756 15.4918C10.4289 15.6117 10.3916 15.7067 10.3916 15.8365H11.5225C11.453 15.6051 11.3855 15.3856 11.2998 15.1617C11.2905 15.1373 11.2811 15.1127 11.2715 15.0875C11.2422 15.0109 11.213 14.9336 11.1836 14.8571C11.1635 14.8044 11.1431 14.7515 11.123 14.6989C11.0744 14.5715 11.0255 14.4443 10.9766 14.317H10.9375C10.8596 14.5144 10.7815 14.7122 10.7041 14.9098ZM7.24805 13.8463C7.12829 13.8471 7.00815 13.8484 6.88477 13.8492V14.8229C7.00202 14.8253 7.11943 14.8282 7.24023 14.8307C7.27676 14.8318 7.31393 14.8325 7.35156 14.8336C7.55068 14.8356 7.68711 14.818 7.85938 14.7067C7.99285 14.5732 8.04976 14.468 8.05371 14.278C7.98796 14.0953 7.90221 13.9963 7.74219 13.8883C7.63221 13.8516 7.5658 13.8446 7.45215 13.8453C7.42238 13.8454 7.392 13.8452 7.36133 13.8453C7.32395 13.8457 7.28656 13.846 7.24805 13.8463ZM20.4961 13.5192C20.4961 13.6489 20.4969 13.779 20.4971 13.9088V13.5192L20.4961 13.0524V13.5192ZM20.4951 12.569L20.4922 12.442C20.4917 12.4335 20.49 12.4251 20.4893 12.4166C20.4934 12.4646 20.495 12.5141 20.4951 12.569ZM12.4229 2.94202C11.2049 2.70159 10.0063 2.67607 8.78809 2.89807C8.82269 2.9906 8.85921 3.08334 8.89844 3.17737L8.89941 3.17932C9.17004 3.84287 9.32281 4.60519 9.06055 5.34338L9.05859 5.35022L9.05566 5.35706C8.89011 5.73207 8.66147 5.98549 8.38281 6.24377C8.16849 6.44249 8.02321 6.62627 7.92383 6.82678C7.82527 7.0257 7.76634 7.25167 7.73633 7.54163C7.72127 8.01128 7.82742 8.48507 8.12012 8.8053C8.22829 8.90296 8.32871 8.9605 8.43457 8.99573C8.54335 9.03192 8.66703 9.04697 8.82617 9.04944C8.9673 9.03519 9.10732 9.01046 9.25488 8.98108H9.25684C9.31509 8.97016 9.31555 8.96976 9.375 8.95862C9.48048 8.93883 9.58651 8.91848 9.69238 8.89807H9.69336C10.0816 8.82624 10.4767 8.80989 10.8584 8.99768L11.0215 9.09143L11.04 9.10315L11.0557 9.11975C11.4396 9.52149 11.4305 9.99769 11.4248 10.4274V10.4323L11.2246 10.4244L11.4238 10.4323C11.4085 10.821 11.3028 11.1849 11.209 11.525C11.2067 11.5343 11.2049 11.5383 11.2021 11.5494L11.2012 11.5533V11.5563L11.1992 11.5641C11.1977 11.5703 11.1969 11.5724 11.1953 11.5787L11.1914 11.5924L11.1895 11.6002C11.1891 11.6016 11.1888 11.6057 11.1885 11.6071L11.1807 11.6364C11.1776 11.6488 11.1818 11.6308 11.1787 11.6432L11.1768 11.651C11.1745 11.6601 11.1762 11.6562 11.1738 11.6656C11.173 11.6689 11.1708 11.676 11.1699 11.6793L11.168 11.6871C11.1677 11.6883 11.1663 11.6927 11.166 11.694C11.1644 11.7004 11.1608 11.7167 11.1592 11.7233C11.1556 11.7375 11.1552 11.7362 11.1543 11.7399H15.6953C15.6486 11.4128 15.638 11.3368 15.5723 10.8766L15.5703 10.8668V10.858C15.5514 10.4463 15.55 10.4309 15.5488 10.2701C15.5396 10.2002 15.5294 10.1621 15.5156 10.1324C15.5025 10.1043 15.4813 10.0742 15.4404 10.026C15.2929 9.927 15.1727 9.88609 14.9766 9.8551H14.9746C14.9466 9.85049 14.9185 9.84521 14.8896 9.84045V9.83948C14.7284 9.81363 14.5658 9.79387 14.4014 9.77405C13.8087 9.70198 13.0966 9.61342 12.6162 9.0553L12.6113 9.04944L12.4922 8.87073C11.9559 7.98742 12.0457 6.85655 12.1816 5.94788L12.1826 5.94397C12.187 5.91826 12.1908 5.89233 12.1953 5.86584C12.2176 5.71935 12.21 5.61597 12.1699 5.46741L12.167 5.45764C11.9798 4.59581 12.0992 3.7473 12.4199 2.95178L12.4219 2.94592C12.4224 2.9447 12.4223 2.94319 12.4229 2.94202ZM13.0723 7.29944C13.0725 7.45469 13.0805 7.56466 13.1025 7.66956C13.1423 7.85868 13.2273 8.03659 13.4258 8.43616C13.7614 8.72498 14.1809 8.76089 14.7021 8.82092C15.2149 8.88012 15.5109 8.91268 15.7178 8.98987C15.891 9.05454 16.0031 9.15121 16.124 9.27893L16.251 9.41663L16.2607 9.42834C16.5637 9.82031 16.5387 10.2948 16.5557 10.6627L16.583 10.9713C16.6138 11.2242 16.6623 11.4682 16.7148 11.7399H19.1846C19.367 10.5469 18.9798 9.1558 18.5 8.01624C18.4473 8.04244 18.3907 8.07865 18.3164 8.12366L18.3135 8.12561C17.3245 8.70488 16.1903 8.84649 15.085 8.57092L15.0801 8.56995C14.464 8.40003 13.8795 8.08439 13.4111 7.64319V7.64221C13.3615 7.59636 13.3605 7.59546 13.3086 7.54749L13.3057 7.54553C13.2225 7.46585 13.1457 7.38414 13.0723 7.29944ZM13.2656 8.56409C13.2869 8.58346 13.3111 8.59927 13.333 8.61682C13.3112 8.59936 13.2878 8.58334 13.2666 8.56409C13.1626 8.35483 13.0844 8.19796 13.0264 8.06506L13.2656 8.56409ZM16.123 1.45764C15.252 1.48322 14.4759 1.87767 13.8574 2.51331L13.7451 2.64514C13.2138 3.3109 13.0413 4.11114 13.085 4.98499C13.173 5.73067 13.5443 6.34475 14.0811 6.88928L14.1592 6.96838C14.6971 7.47292 15.4998 7.74216 16.2441 7.73108C17.1209 7.6799 17.9046 7.34388 18.5107 6.70764C19.0938 6.01674 19.3652 5.18744 19.3115 4.28381C19.2219 3.44843 18.7919 2.66784 18.1406 2.13635L17.9434 1.99866C17.4718 1.6912 16.9341 1.48622 16.3848 1.46252H16.3828C16.339 1.46019 16.3387 1.46002 16.2939 1.45764H16.123ZM16.2764 2.15881C16.3858 2.2172 16.3855 2.21768 16.4707 2.31506C16.4983 2.42144 16.5042 2.51572 16.5098 2.62659C16.5478 2.64073 16.5482 2.64052 16.5869 2.65491C17.0493 2.83223 17.0498 2.8323 17.1895 3.00842C17.2231 3.13909 17.2059 3.23709 17.1729 3.36682C17.0823 3.47484 17.025 3.48243 16.8848 3.50061C16.7201 3.48067 16.6411 3.42626 16.5098 3.32776C16.3966 3.29007 16.3191 3.28276 16.2012 3.28186C16.1512 3.28103 16.1506 3.28075 16.0996 3.27991C15.9954 3.28965 15.9352 3.30992 15.8477 3.36682C15.7567 3.50324 15.7426 3.58281 15.749 3.74377C15.7615 3.83623 15.7618 3.83602 15.8262 3.88831C16.0733 4.03143 16.3307 4.1378 16.5967 4.24084C16.931 4.3771 17.1886 4.55513 17.3408 4.89026C17.4592 5.2147 17.4276 5.52059 17.2988 5.83752C17.1454 6.15714 16.9434 6.32658 16.627 6.48401L16.5098 6.52307C16.5092 6.54658 16.5094 6.57014 16.5088 6.59436C16.4992 6.75568 16.4925 6.8479 16.3887 6.9762C16.2412 7.04672 16.1597 7.03411 16.0039 6.99084C15.9237 6.92932 15.8926 6.88549 15.8477 6.79553C15.8461 6.70473 15.846 6.61387 15.8477 6.52307C15.7987 6.52147 15.7497 6.51984 15.6992 6.51819C15.4615 6.49253 15.2636 6.38477 15.0684 6.25061C14.9718 6.10572 14.9722 6.03226 14.9902 5.86096C15.0487 5.76598 15.0491 5.7656 15.1465 5.70471C15.3725 5.67462 15.5023 5.71448 15.6992 5.82288C15.9248 5.94248 16.187 5.92142 16.4248 5.8512C16.5325 5.81783 16.5759 5.80335 16.6348 5.70569C16.6452 5.67971 16.6553 5.65335 16.666 5.62659C16.6812 5.59773 16.6962 5.56843 16.7119 5.5387C16.7545 5.39435 16.7585 5.26272 16.7051 5.12073C16.5487 4.91998 16.364 4.85687 16.1328 4.77405C15.7784 4.63974 15.3856 4.49 15.1855 4.14612C15.0567 3.84401 15.0333 3.57528 15.1445 3.26428C15.255 3.01989 15.3973 2.81434 15.6533 2.71155C15.7282 2.68946 15.7286 2.68995 15.8477 2.66565C15.8452 2.62466 15.8423 2.58288 15.8398 2.54065C15.8475 2.38522 15.8716 2.31977 15.9648 2.19788C16.0759 2.14238 16.1531 2.14673 16.2764 2.15881ZM19.4326 6.87366L19.5244 6.74475C19.5259 6.74258 19.5269 6.74009 19.5283 6.73792C19.4976 6.78364 19.466 6.82907 19.4326 6.87366ZM12.2959 6.68323C12.295 6.69525 12.2948 6.70733 12.2939 6.71936C12.3029 6.59497 12.3148 6.47129 12.3291 6.34924L12.2959 6.68323ZM5.00977 1.24963C4.45366 1.02509 3.90315 1.07875 3.41602 1.42542H3.41504C3.37925 1.45068 3.34326 1.47574 3.30664 1.50159C2.98711 1.81801 2.82277 2.19907 2.78906 2.65198C2.79732 2.93794 2.89113 3.21283 3.0293 3.48987C3.17091 3.77378 3.34612 4.0372 3.51562 4.3219C3.68076 4.59987 3.84101 4.88088 4.00098 5.15881H4.00195C4.11527 5.35562 4.22947 5.55238 4.34375 5.74866C4.36768 5.71385 4.39484 5.67909 4.41797 5.63831L4.4873 5.51721C4.51147 5.47438 4.53565 5.43146 4.56055 5.38733V5.38635L4.79883 4.96936C4.9034 4.78548 5.00882 4.60186 5.11426 4.41956C5.18783 4.29229 5.26155 4.16437 5.33496 4.03674C5.41153 3.90382 5.48919 3.77073 5.56836 3.63831L5.66406 3.46643C5.86763 3.06867 5.9394 2.686 5.8457 2.23987C5.69876 1.81292 5.40445 1.45093 5.00977 1.24963ZM3.34375 4.42444C3.44775 4.59951 3.54873 4.77632 3.65039 4.95276C3.54875 4.77597 3.44782 4.59865 3.34375 4.42346C3.26239 4.28683 3.17557 4.14883 3.09082 4.00842C3.17563 4.14899 3.26231 4.28765 3.34375 4.42444ZM3.72852 1.85022C4.02224 1.62315 4.38709 1.56247 4.74219 1.69592C4.98785 1.83619 5.12121 1.98544 5.21875 2.25354C5.28204 2.55415 5.24571 2.78947 5.09277 3.0553C4.92124 3.2501 4.73834 3.38735 4.47559 3.41858C4.14604 3.4229 3.94639 3.37071 3.69727 3.15491C3.49878 2.9224 3.43793 2.72221 3.44238 2.42053C3.47005 2.19647 3.56569 2.00651 3.72852 1.85022ZM4.53906 2.3219C4.3982 2.22974 4.27596 2.24667 4.14258 2.34143C4.07334 2.42709 4.07313 2.42706 4.05957 2.52893C4.08584 2.66026 4.12659 2.70458 4.23535 2.78186C4.35203 2.81103 4.35192 2.81107 4.46875 2.78186C4.56884 2.70135 4.56936 2.7017 4.625 2.58752C4.62231 2.47472 4.60048 2.41564 4.53906 2.3219ZM6.1416 1.10022C6.18066 1.14007 6.219 1.18209 6.25488 1.22717C6.21886 1.18189 6.18081 1.13923 6.1416 1.09924L6.06641 1.02893L6.1416 1.10022ZM15.4365 0.712524L15.4355 0.713501C15.4979 0.701413 15.5607 0.690604 15.624 0.681274L15.625 0.680298C15.5617 0.68961 15.4988 0.700456 15.4365 0.712524ZM2.98926 0.694946V0.695923C3.05476 0.650856 3.12309 0.609094 3.19434 0.570923V0.569946C3.12323 0.608041 3.05465 0.649981 2.98926 0.694946Z" fill="white" fill-opacity="0.8"/>
</svg>
