<svg width="25" height="25" viewBox="0 0 25 25" fill="none" xmlns="http://www.w3.org/2000/svg">
<path d="M20.5 10.7273C20.5 15.7203 14.961 20.9203 13.101 22.5263C12.9277 22.6566 12.7168 22.727 12.5 22.727C12.2832 22.727 12.0723 22.6566 11.899 22.5263C10.039 20.9203 4.5 15.7203 4.5 10.7273C4.5 8.60556 5.34285 6.57073 6.84315 5.07044C8.34344 3.57015 10.3783 2.72729 12.5 2.72729C14.6217 2.72729 16.6566 3.57015 18.1569 5.07044C19.6571 6.57073 20.5 8.60556 20.5 10.7273Z" stroke="white" stroke-opacity="0.8" stroke-width="1.5" stroke-linecap="round" stroke-linejoin="round"/>
<path d="M12.5 13.7273C14.1569 13.7273 15.5 12.3841 15.5 10.7273C15.5 9.07044 14.1569 7.72729 12.5 7.72729C10.8431 7.72729 9.5 9.07044 9.5 10.7273C9.5 12.3841 10.8431 13.7273 12.5 13.7273Z" stroke="white" stroke-opacity="0.8" stroke-width="1.5" stroke-linecap="round" stroke-linejoin="round"/>
</svg>
