<svg width="25" height="25" viewBox="0 0 25 25" fill="none" xmlns="http://www.w3.org/2000/svg">
<path d="M9.5 19.3635C9.5 21.0204 8.15685 22.3635 6.5 22.3635C4.84315 22.3635 3.5 21.0204 3.5 19.3635C3.5 17.7067 4.84315 16.3635 6.5 16.3635C8.15685 16.3635 9.5 17.7067 9.5 19.3635ZM9.5 19.3635H18C18.9283 19.3635 19.8185 18.9948 20.4749 18.3384C21.1313 17.682 21.5 16.7918 21.5 15.8635C21.5 14.9353 21.1313 14.045 20.4749 13.3887C19.8185 12.7323 18.9283 12.3635 18 12.3635H7C6.07174 12.3635 5.1815 11.9948 4.52513 11.3384C3.86875 10.682 3.5 9.79178 3.5 8.86353C3.5 7.93527 3.86875 7.04503 4.52513 6.38865C5.1815 5.73227 6.07174 5.36353 7 5.36353H15.5M15.5 5.36353C15.5 7.02038 16.8431 8.36353 18.5 8.36353C20.1569 8.36353 21.5 7.02038 21.5 5.36353C21.5 3.70667 20.1569 2.36353 18.5 2.36353C16.8431 2.36353 15.5 3.70667 15.5 5.36353Z" stroke="white" stroke-opacity="0.8" stroke-width="1.5" stroke-linecap="round" stroke-linejoin="round"/>
</svg>
