<svg width="23" height="22" viewBox="0 0 23 22" fill="none" xmlns="http://www.w3.org/2000/svg">
<path d="M6.5 19.4801V17.8181C6.5 17.2877 6.71071 16.779 7.08579 16.4039C7.46086 16.0288 7.96957 15.8181 8.5 15.8181H14.5C15.0304 15.8181 15.5391 16.0288 15.9142 16.4039C16.2893 16.779 16.5 17.2877 16.5 17.8181V19.4801M21.5 10.8181C21.5 16.341 17.0228 20.8181 11.5 20.8181C5.97715 20.8181 1.5 16.341 1.5 10.8181C1.5 5.29527 5.97715 0.818115 11.5 0.818115C17.0228 0.818115 21.5 5.29527 21.5 10.8181ZM14.5 8.81812C14.5 10.475 13.1569 11.8181 11.5 11.8181C9.84315 11.8181 8.5 10.475 8.5 8.81812C8.5 7.16126 9.84315 5.81812 11.5 5.81812C13.1569 5.81812 14.5 7.16126 14.5 8.81812Z" stroke="white" stroke-opacity="0.8" stroke-width="1.5" stroke-linecap="round" stroke-linejoin="round"/>
</svg>
