<svg width="20" height="18" viewBox="0 0 20 18" fill="none" xmlns="http://www.w3.org/2000/svg">
<path d="M19.625 14.5V16.2188C19.625 17.1668 18.8536 17.9375 17.9062 17.9375H3.125C1.60837 17.9375 0.375 16.7041 0.375 15.1875C0.375 15.1875 0.375 3.51031 0.375 3.5C0.375 1.98337 1.60837 0.75 3.125 0.75H15.8438C16.4137 0.75 16.875 1.212 16.875 1.78125C16.875 2.3505 16.4137 2.8125 15.8438 2.8125H3.125C2.74619 2.8125 2.4375 3.1205 2.4375 3.5C2.4375 3.8795 2.74619 4.1875 3.125 4.1875H17.9062C18.8536 4.1875 19.625 4.95819 19.625 5.90625V7.625H16.1875C14.2921 7.625 12.75 9.16706 12.75 11.0625C12.75 12.9579 14.2921 14.5 16.1875 14.5H19.625Z" fill="black"/>
</svg>
